<svg width="68" height="79" viewBox="0 0 68 79" fill="none" xmlns="http://www.w3.org/2000/svg">
<path d="M67.4538 47.5318C67.4602 44.0022 66.5761 40.5286 64.8841 37.4357C65.1015 37.1123 65.2867 36.7679 65.4398 36.4025C65.8278 35.4698 65.9663 34.4512 65.8415 33.448C65.7168 32.4448 65.3331 31.4919 64.7286 30.6838C64.1241 29.8758 63.3198 29.2407 62.3956 28.8418C61.4714 28.4428 60.4595 28.2938 59.4603 28.4096C59.8985 27.5215 60.2464 26.5949 60.5038 25.6299L62.4187 18.4788C63.4613 15.1478 63.2475 11.5477 61.8181 8.36505C60.3888 5.18242 57.8438 2.64008 54.6688 1.223C51.4938 -0.194082 47.9109 -0.38673 44.6036 0.681807C41.2963 1.75034 38.496 4.00528 36.737 7.01647C35.1262 4.78448 32.7763 3.20302 30.1096 2.55621C27.4429 1.90939 24.6341 2.2396 22.1879 3.48753C19.7417 4.73546 17.8183 6.8193 16.7633 9.36469C15.7084 11.9101 15.591 14.7502 16.4323 17.3748H10.4554C0.12947 17.3748 -3.9247 30.8353 4.66629 36.5913L9.72748 39.9847L6.19769 53.9041C5.75642 55.5838 5.70816 57.3434 6.05668 59.0449C6.4052 60.7465 7.14104 62.3438 8.20651 63.7117C9.59875 65.5156 11.4985 66.8569 13.659 67.5613V76.3776C13.659 77.0731 13.9339 77.7401 14.4232 78.2319C14.9124 78.7237 15.576 79 16.2679 79H64.845C65.5369 79 66.2004 78.7237 66.6897 78.2319C67.179 77.7401 67.4538 77.0731 67.4538 76.3776V47.5318ZM30.9297 68.1172H38.0258C39.537 68.1175 40.988 67.5213 42.0663 66.4571C43.1446 65.3928 43.7641 63.9455 43.7914 62.4267C43.7914 61.6497 43.6387 60.8803 43.3421 60.1627C43.0455 59.4452 42.6108 58.7935 42.0629 58.2453C41.5151 57.6971 40.8649 57.263 40.1497 56.968C39.4345 56.6731 38.6684 56.523 37.8954 56.5265H30.9297V49.2914C30.9298 48.8598 30.8239 48.4348 30.6213 48.0542C30.4188 47.6736 30.126 47.3491 29.7688 47.1096L7.55952 32.2277C3.26532 29.3484 5.29241 22.6195 10.4554 22.6195H17.8593L18.4854 24.9533C19.0824 27.1861 20.2959 29.2033 21.9856 30.7719C23.6753 32.3404 25.7723 33.3961 28.0339 33.8169C29.5044 34.0756 31.0123 34.0265 32.4631 33.6727C33.9139 33.319 35.2765 32.6682 36.4657 31.761C36.6101 31.7854 36.7579 31.7977 36.9092 31.7977H46.5829C47.583 31.7994 48.5569 31.8903 49.5048 32.0704L42.9566 34.6036C41.7051 35.0923 40.6625 36.0046 40.0087 37.1833C39.3548 38.3619 39.1307 39.733 39.375 41.06C39.6192 42.387 40.3165 43.5867 41.3466 44.4523C42.3767 45.3178 43.675 45.7948 45.0176 45.801C45.7324 45.801 46.4394 45.6673 47.1047 45.4077L60.4595 40.2416C61.5943 42.4182 62.2361 44.9016 62.2361 47.5318V73.7553H30.9297V68.1172ZM40.3347 26.553C40.4338 26.2942 40.5251 26.032 40.6086 25.7663C41.2921 23.5607 41.3382 21.2053 40.7417 18.9744L39.5729 14.7236L40.199 12.3792L40.2147 12.3162C40.4688 11.1284 40.9604 10.0048 41.6596 9.01371C42.3588 8.02261 43.2511 7.18467 44.2823 6.55072C45.3135 5.91678 46.4621 5.50006 47.6583 5.32586C48.8546 5.15165 50.0736 5.2236 51.2414 5.53733C52.4092 5.85106 53.5014 6.40002 54.4517 7.15091C55.402 7.9018 56.1906 8.83895 56.7696 9.90549C57.3486 10.972 57.706 12.1457 57.8201 13.3553C57.9342 14.5649 57.8025 15.7852 57.4332 16.9421L57.4149 16.9998L55.4661 24.2768C55.1214 25.5614 54.5176 26.7611 53.6921 27.8012C51.4124 26.9734 49.0068 26.551 46.5829 26.553H40.3347Z" fill="#F5C78B"/>
</svg>
